Coordinates
version=1
nRows=30
nColumns=38
inDegrees=no

Units are S.I. units (second, meters, Newtons, ...)
If the header above contains a line with 'inDegrees', this indicates whether rotational values are in degrees (yes) or radians (no).

endheader
time	pelvis_tilt	pelvis_list	pelvis_rotation	pelvis_tx	pelvis_ty	pelvis_tz	hip_flexion_r	hip_adduction_r	hip_rotation_r	knee_angle_r	ankle_angle_r	subtalar_angle_r	mtp_angle_r	hip_flexion_l	hip_adduction_l	hip_rotation_l	knee_angle_l	ankle_angle_l	subtalar_angle_l	mtp_angle_l	lumbar_extension	lumbar_bending	lumbar_rotation	arm_flex_r	arm_add_r	arm_rot_r	elbow_flex_r	pro_sup_r	wrist_flex_r	wrist_dev_r	arm_flex_l	arm_add_l	arm_rot_l	elbow_flex_l	pro_sup_l	wrist_flex_l	wrist_dev_l
0.58	2.561	1.46434	-0.973175	0.742237	0.0069078	0.934854	0.22018	0.0928309	-0.195398	0.0526449	-0.123512	0	0	-0.373233	-0.0227089	-0.31312	0.203592	0.204283	0	0	-0.276516	0.0569695	0.0443726	0.100515	-0.292939	1.02674	0.375497	0.613283	0	0	0.0599577	-0.214637	0.121246	0.379687	1.5708	0	0
0.59	2.51775	1.46305	-0.929158	0.743216	0.0184207	0.934405	0.213487	0.0999146	-0.186595	0.0534732	-0.150019	0	0	-0.368604	-0.0355769	-0.319469	0.232967	0.201108	0	0	-0.272054	0.0642769	0.0403414	0.0975761	-0.294675	1.02644	0.377418	0.615965	0	0	0.0483443	-0.213137	0.109452	0.38635	1.5708	0	0
0.6	2.47108	1.46073	-0.882678	0.74437	0.0300297	0.934172	0.208071	0.107231	-0.180889	0.0593929	-0.168285	0	0	-0.362326	-0.0502857	-0.326375	0.266121	0.195602	0	0	-0.267721	0.0723365	0.0371341	0.0948083	-0.296482	1.0262	0.379113	0.619417	0	0	0.0360057	-0.211276	0.096769	0.39436	1.5708	0	0
0.61	2.42357	1.45677	-0.836509	0.745631	0.0417155	0.934262	0.202758	0.115494	-0.177402	0.069432	-0.17781	0	0	-0.355044	-0.0669845	-0.333644	0.302901	0.186319	0	0	-0.264246	0.0814942	0.0350187	0.0924425	-0.298556	1.02658	0.380483	0.622947	0	0	0.0234553	-0.208613	0.0837339	0.403192	1.5708	0	0
0.62	2.37184	1.45079	-0.788143	0.747171	0.0533737	0.934684	0.19744	0.126081	-0.175378	0.083276	-0.175398	0	0	-0.345646	-0.0867333	-0.34182	0.34516	0.172925	0	0	-0.261822	0.0921425	0.0354497	0.0905341	-0.300954	1.02833	0.381591	0.626658	0	0	0.0118116	-0.205069	0.0699957	0.410994	1.5708	0	0
0.63	2.32058	1.44364	-0.741494	0.748994	0.0648611	0.935359	0.192386	0.138224	-0.175521	0.09934	-0.163249	0	0	-0.332449	-0.109141	-0.349624	0.393622	0.154587	0	0	-0.26022	0.103293	0.0376533	0.089278	-0.303195	1.03085	0.382346	0.630188	0	0	0.00158139	-0.201313	0.0561443	0.417453	1.5708	0	0
0.64	2.26803	1.43721	-0.694757	0.751031	0.0762537	0.936056	0.18858	0.150541	-0.178183	0.114982	-0.150534	0	0	-0.313788	-0.132938	-0.356271	0.447493	0.128511	0	0	-0.257311	0.113722	0.0413032	0.08777	-0.30536	1.03346	0.383178	0.633416	0	0	-0.00767952	-0.197502	0.0439986	0.421586	1.5708	0	0
0.65	2.21193	1.43255	-0.645513	0.753267	0.0875678	0.936578	0.185872	0.162278	-0.181981	0.128053	-0.141105	0	0	-0.288632	-0.157038	-0.359484	0.506624	0.093072	0	0	-0.251838	0.122625	0.0458893	0.0857098	-0.307446	1.03592	0.384387	0.636284	0	0	-0.0171141	-0.194342	0.0351869	0.424889	1.5708	0	0
0.66	2.15065	1.4298	-0.59143	0.755638	0.0987009	0.936779	0.183865	0.173193	-0.18446	0.137595	-0.135666	0	0	-0.25659	-0.180808	-0.357261	0.570545	0.0482446	0	0	-0.243824	0.129829	0.0506154	0.0832564	-0.309224	1.03749	0.385997	0.638974	0	0	-0.0273122	-0.19207	0.0261841	0.431738	1.5708	0	0
0.67	2.07808	1.42825	-0.526505	0.758106	0.109686	0.936591	0.182615	0.18427	-0.183887	0.142975	-0.135297	0	0	-0.218285	-0.204177	-0.349826	0.63719	-0.00465578	0	0	-0.232846	0.136343	0.0554245	0.080474	-0.311529	1.03897	0.388802	0.642144	0	0	-0.039463	-0.19067	0.01625	0.444013	1.5708	0	0
0.68	2.01115	1.42679	-0.467404	0.76053	0.120467	0.936367	0.179397	0.194707	-0.178715	0.144627	-0.137112	0	0	-0.177609	-0.225357	-0.337025	0.703833	-0.0642073	0	0	-0.22195	0.141772	0.0609997	0.0774015	-0.314436	1.03984	0.392325	0.644856	0	0	-0.049812	-0.189733	0.00986863	0.454075	1.5708	0	0
0.69	1.95339	1.42479	-0.416887	0.762781	0.131019	0.936211	0.174921	0.204065	-0.171421	0.146212	-0.135504	0	0	-0.135859	-0.244664	-0.320137	0.768986	-0.129542	0	0	-0.212439	0.146791	0.0664442	0.0747378	-0.317862	1.04055	0.396427	0.648094	0	0	-0.0593988	-0.188992	0.00514712	0.464916	1.5708	0	0
0.7	1.91394	1.42203	-0.384093	0.76482	0.141301	0.936327	0.168146	0.211866	-0.164484	0.149028	-0.12924	0	0	-0.0951802	-0.261691	-0.300618	0.831357	-0.200323	0	0	-0.206469	0.151347	0.0721677	0.0730807	-0.321629	1.04148	0.400392	0.650092	0	0	-0.0671668	-0.188118	0.00139143	0.474832	1.5708	0	0
0.71	1.89111	1.41843	-0.367972	0.766737	0.151379	0.936777	0.158632	0.218877	-0.156801	0.152	-0.120428	0	0	-0.0562096	-0.277005	-0.279542	0.891454	-0.274311	0	0	-0.203719	0.155594	0.0788061	0.0721527	-0.325683	1.04256	0.404327	0.650656	0	0	-0.0736521	-0.187376	-0.000828275	0.484632	1.5708	0	0
0.72	1.88704	1.41422	-0.369566	0.76845	0.161186	0.937648	0.14542	0.224852	-0.148565	0.153231	-0.111161	0	0	-0.0194325	-0.289736	-0.256114	0.948477	-0.344331	0	0	-0.204648	0.159358	0.0855313	0.0721662	-0.329309	1.0439	0.407	0.651237	0	0	-0.0776629	-0.186499	-0.00202309	0.492102	1.5708	0	0
0.73	1.89573	1.41088	-0.383697	0.770008	0.170812	0.938827	0.129499	0.228892	-0.139395	0.152516	-0.101988	0	0	0.0150201	-0.297877	-0.233042	1.00065	-0.39811	0	0	-0.207802	0.161345	0.0925142	0.0729715	-0.33268	1.04597	0.409024	0.651649	0	0	-0.0810282	-0.185791	-0.00237133	0.500607	1.5708	0	0
0.74	1.91359	1.40867	-0.405986	0.771383	0.180231	0.940185	0.110856	0.231153	-0.12936	0.148325	-0.0939372	0	0	0.0480142	-0.30181	-0.210816	1.04813	-0.420559	0	0	-0.212387	0.161481	0.0987385	0.0745417	-0.335397	1.04863	0.410104	0.650842	0	0	-0.0843969	-0.185901	-0.000171324	0.511758	1.5708	0	0
0.75	1.9353	1.40774	-0.430647	0.772601	0.189332	0.941623	0.091213	0.231808	-0.120127	0.141509	-0.0878302	0	0	0.08178	-0.302832	-0.188316	1.09346	-0.405673	0	0	-0.217446	0.159936	0.103878	0.0766256	-0.336827	1.05	0.40964	0.65011	0	0	-0.0862319	-0.18664	0.00468406	0.521994	1.5708	0	0
0.76	1.96098	1.40841	-0.460123	0.773882	0.198301	0.943184	0.0706823	0.230842	-0.110497	0.132827	-0.0832153	0	0	0.115593	-0.301316	-0.166699	1.13894	-0.361518	0	0	-0.222537	0.156158	0.109991	0.0786486	-0.336927	1.04976	0.407033	0.651264	0	0	-0.08669	-0.187018	0.00878616	0.530019	1.5708	0	0
0.77	1.99269	1.40989	-0.495424	0.775194	0.207089	0.944857	0.0487845	0.228802	-0.101129	0.122003	-0.0798379	0	0	0.149602	-0.29733	-0.144797	1.18291	-0.306865	0	0	-0.228216	0.150744	0.116009	0.0811075	-0.335643	1.04905	0.402551	0.653548	0	0	-0.0857643	-0.187386	0.0130216	0.536145	1.5708	0	0
0.78	2.02704	1.41217	-0.533169	0.776439	0.215692	0.946555	0.0270888	0.225641	-0.091783	0.110655	-0.0771959	0	0	0.182739	-0.291389	-0.125495	1.22087	-0.257191	0	0	-0.233891	0.144201	0.121904	0.0841551	-0.33367	1.0498	0.396899	0.656079	0	0	-0.0835386	-0.187302	0.0175304	0.54069	1.5708	0	0
0.79	2.06619	1.41505	-0.576197	0.777633	0.224157	0.948314	0.00534125	0.221015	-0.0816851	0.0988943	-0.0744709	0	0	0.213315	-0.283497	-0.110162	1.25067	-0.218783	0	0	-0.239809	0.136577	0.128499	0.0874102	-0.331794	1.05172	0.39104	0.655892	0	0	-0.0797077	-0.186578	0.0224409	0.54274	1.5708	0	0
0.8	2.11757	1.4294	-0.63119	0.779005	0.232965	0.948661	-0.00321047	0.204869	-0.0708167	0.102416	-0.0567338	0	0	0.247225	-0.262671	-0.098903	1.27508	-0.183654	0	0	-0.237354	0.117174	0.132216	0.0883188	-0.327458	1.05362	0.385452	0.654187	0	0	-0.079116	-0.189274	0.0279094	0.549036	1.5708	0	0
0.81	2.15621	1.43366	-0.675053	0.78018	0.241117	0.95013	-0.020725	0.198289	-0.0622463	0.0935643	-0.0529271	0	0	0.276428	-0.251816	-0.0879535	1.29355	-0.152256	0	0	-0.241302	0.108629	0.140436	0.0913502	-0.326275	1.05612	0.380188	0.651609	0	0	-0.0738766	-0.188468	0.0358437	0.550105	1.5708	0	0
0.82	2.19045	1.43801	-0.715276	0.781328	0.249239	0.951414	-0.0372203	0.191681	-0.0522334	0.0846736	-0.0498341	0	0	0.30486	-0.240784	-0.0784451	1.30761	-0.122799	0	0	-0.243958	0.100747	0.149672	0.0936249	-0.326386	1.05743	0.377052	0.65086	0	0	-0.0669691	-0.186064	0.0391656	0.546618	1.5708	0	0
0.83	2.22398	1.44221	-0.755442	0.782478	0.257328	0.952616	-0.0529304	0.184961	-0.041342	0.0765783	-0.0467757	0	0	0.331827	-0.231583	-0.0726035	1.31744	-0.0959375	0	0	-0.246017	0.0932736	0.159918	0.0952808	-0.326942	1.05556	0.374141	0.650921	0	0	-0.0590559	-0.182971	0.0409919	0.540714	1.5708	0	0
0.84	2.26469	1.4463	-0.803528	0.783677	0.265424	0.953786	-0.0685662	0.17741	-0.0301627	0.0692893	-0.042957	0	0	0.355984	-0.222985	-0.0703899	1.32125	-0.0724056	0	0	-0.24836	0.0852504	0.170675	0.0967002	-0.327989	1.05165	0.372023	0.651265	0	0	-0.0511365	-0.179983	0.0423176	0.535334	1.5708	0	0
0.85	2.30874	1.44906	-0.855101	0.784854	0.273671	0.954879	-0.0851346	0.170385	-0.0199297	0.0620231	-0.0393255	0	0	0.378887	-0.222231	-0.0775805	1.32237	-0.0534444	0	0	-0.251144	0.0781952	0.181582	0.0976497	-0.330463	1.04821	0.372204	0.652966	0	0	-0.043789	-0.177444	0.0445027	0.530728	1.5708	0	0
0.86	2.47165	1.45071	-1.02613	0.786426	0.2812	0.957814	-0.109572	0.15159	-0.00976295	0.0557565	-0.0362615	0	0	0.391561	-0.206317	-0.0844157	1.31579	-0.0470671	0	0	-0.266043	0.0574769	0.191417	0.102725	-0.32823	1.04221	0.367757	0.654517	0	0	-0.0312966	-0.177865	0.0482997	0.524813	1.5708	0	0
0.87	2.43618	1.45485	-0.994836	0.786719	0.289714	0.95726	-0.116542	0.151493	-0.00395327	0.0510699	-0.0291353	0	0	0.412833	-0.1973	-0.0748252	1.3004	-0.0179947	0	0	-0.258855	0.0605111	0.199432	0.100826	-0.335715	1.03748	0.373583	0.658218	0	0	-0.0287191	-0.175009	0.0538512	0.524963	1.5708	0	0
